<?xml version="1.0" standalone="no"?>
<!DOCTYPE svg PUBLIC "-//W3C//DTD SVG 20010904//EN"
 "http://www.w3.org/TR/2001/REC-SVG-20010904/DTD/svg10.dtd">
<svg version="1.0" xmlns="http://www.w3.org/2000/svg"
 width="540.000000pt" height="599.000000pt" viewBox="0 0 540.000000 599.000000"
 preserveAspectRatio="xMidYMid meet">

<g transform="translate(0.000000,599.000000) scale(0.100000,-0.100000)"
fill="#000000" stroke="none">
<path d="M632 5979 c-141 -12 -321 -44 -460 -81 -64 -16 -127 -33 -139 -35
-13 -3 -23 -10 -23 -15 0 -17 121 -159 235 -277 233 -240 524 -440 800 -549
140 -56 301 -102 590 -171 565 -134 767 -174 1040 -206 207 -24 200 -19 96
-70 -89 -43 -91 -44 -126 -29 -20 8 -75 24 -123 36 -208 52 -721 12 -1020 -78
-174 -53 -277 -110 -429 -238 -436 -367 -609 -758 -639 -1447 -13 -310 35
-650 134 -954 180 -549 484 -1084 770 -1357 295 -280 766 -446 1417 -499 344
-28 782 30 1139 150 495 167 937 516 1169 925 145 254 252 568 308 901 61 363
1 892 -155 1359 -109 323 -227 527 -415 714 -258 256 -630 455 -975 521 -155
30 -341 44 -483 37 l-121 -7 -12 73 c-20 117 6 274 79 472 28 73 21 124 -21
172 -40 45 -182 115 -247 122 -45 4 -53 2 -80 -25 -42 -43 -47 -86 -23 -211
35 -183 60 -362 77 -552 l6 -65 -44 105 c-182 439 -469 744 -927 983 -210 110
-478 207 -690 252 -209 44 -505 63 -708 44z m498 -79 c310 -28 528 -90 795
-225 333 -169 658 -423 792 -620 50 -75 94 -161 122 -243 29 -84 26 -93 -12
-51 -90 101 -273 224 -522 351 -673 342 -1368 578 -2065 701 l-75 13 53 12
c264 59 649 85 912 62z m-479 -270 c423 -106 799 -228 1118 -362 189 -80 551
-262 716 -361 124 -74 299 -196 292 -204 -2 -2 -64 8 -138 22 -589 111 -1192
275 -1494 407 -192 84 -452 233 -645 371 -90 64 -300 226 -300 231 0 4 243
-52 451 -104z m2457 -272 c30 -11 69 -34 88 -50 30 -26 34 -36 34 -78 0 -27
-11 -95 -25 -152 -72 -306 -94 -744 -49 -968 3 -14 -15 9 -40 50 l-45 75 -1
111 c-1 244 -49 702 -92 878 l-31 129 23 19 c26 21 50 19 138 -14z"/>
</g>
</svg>
